# xmcd CD database file generated by MAGIX-FreeDB-MP3_deluxe_17 v3.0beta1
#
# Track frame offsets:
#	150
#	17869
#	35037
#	54688
#	75525
#	93369
#	112731
#	122268
#	140019
#	163097
#	177852
#	197514
#	218131
#	233924
#	250042
#	271081
#	288048
#	306128
#	332438
#
# Disc length: 4607
#
# Revision: 7
# Processed by: cddbd v1.5.2PL0 Copyright (c) Steve Scherf et al.
# Submitted via: MAGIX-FreeDB-MP3_deluxe_17 v3.0beta1
#
DISCID=f911fd13
DTITLE=Various Artist - Mystera IX
DYEAR=2002
DGENRE=New Age
TTITLE0=Era - Divano
TTITLE1=Vangelis - Light And Shadow
TTITLE2=Highland - Quo Vadis
TTITLE3=Oliver Shanti - Journey To Schambala
TTITLE4=Mike Oldfield - To Be Free
TTITLE5=Gregorian - Child In Time
TTITLE6=Clannad - Caislean Oir
TTITLE7=Santana - Aqua Marine
TTITLE8=Lesiem - Lesiem
TTITLE9=Cuncti Simus Concanentes - Ave Maria Unio Mystica
TTITLE10=Evolution - Sunrise
TTITLE11=Maire Ryham - Mists Of Avalon
TTITLE12=Lingua Mystica - Gloria
TTITLE13=Hazy Garden - Minja
TTITLE14=Gandalf - Fountain Of Secrets
TTITLE15=Ortiga - Danza La Luna
TTITLE16=Brighter Touch - Mother Nature Ballade
TTITLE17=Capercaillie - To The Moon
TTITLE18=Sarah Brightman - La Lune
EXTD=2002 - Columbia No1 YEAR: 2002 ID3G: 10
EXTT0=
EXTT1=
EXTT2=
EXTT3=
EXTT4=
EXTT5=
EXTT6=
EXTT7=
EXTT8=
EXTT9=
EXTT10=
EXTT11=
EXTT12=
EXTT13=
EXTT14=
EXTT15=
EXTT16=
EXTT17=
EXTT18=
PLAYORDER=
